<svg width="55" height="26" viewBox="0 0 55 26" fill="none" xmlns="http://www.w3.org/2000/svg">
    <path d="M6 25.6C5.97333 25.6 5.81333 25.5867 5.52 25.56C5.25333 25.56 5.12 25.5467 5.12 25.52C5.06667 25.4133 5.01333 25.36 4.96 25.36C4.93333 25.36 4.86667 25.3467 4.76 25.32C4.73333 25.2933 4.6 25.2 4.36 25.04C4.12 24.88 3.94667 24.7467 3.84 24.64C3.65333 24.7467 3.45333 24.84 3.24 24.92C3.02667 25.0267 2.81333 25.08 2.6 25.08C2.12 25.08 1.64 24.8933 1.16 24.52C0.706667 24.1733 0.48 23.7867 0.48 23.36C0.48 23.0667 0.546667 22.7467 0.68 22.4C0.786667 22.08 0.826667 21.8933 0.8 21.84C0.88 21.7067 0.96 21.5333 1.04 21.32C1.14667 21.1067 1.18667 20.9333 1.16 20.8C1.21333 20.6933 1.33333 20.4133 1.52 19.96C1.70667 19.48 1.89333 19.0267 2.08 18.6C2.29333 18.1467 2.42667 17.92 2.48 17.92L2.52 17.64C2.54667 17.5067 2.61333 17.4533 2.72 17.48C2.82667 17.48 2.88 17.5467 2.88 17.68C2.85333 18.0533 2.8 18.4133 2.72 18.76C2.64 19.1067 2.6 19.4933 2.6 19.92V20.04C2.6 20.3867 2.64 20.72 2.72 21.04C2.82667 21.36 2.85333 21.6933 2.8 22.04C2.8 22.0933 2.81333 22.1467 2.84 22.2C2.89333 22.28 2.93333 22.3467 2.96 22.4H3C3.13333 22.8267 3.29333 23.2133 3.48 23.56C3.69333 23.4267 3.89333 23.28 4.08 23.12C4.26667 22.96 4.44 22.8 4.6 22.64C4.81333 22.6133 4.94667 22.5467 5 22.44C5.08 22.3333 5.14667 22.2 5.2 22.04C5.49333 21.7733 5.76 21.48 6 21.16C6.26667 20.84 6.53333 20.5467 6.8 20.28L6.84 20.24C6.94667 20.0533 7.08 20 7.24 20.08C7.29333 19.8667 7.38667 19.64 7.52 19.4C7.68 19.16 7.85333 18.9333 8.04 18.72C8.22667 18.48 8.4 18.24 8.56 18L10.16 15.44C10.2933 15.2267 10.4133 15.0267 10.52 14.84C10.6267 14.6267 10.7467 14.4267 10.88 14.24C10.9333 14.16 11 14.0933 11.08 14.04C11.1867 13.9867 11.2533 13.9467 11.28 13.92V13.8C11.28 13.64 11.3067 13.52 11.36 13.44H11.4C11.5067 13.2533 11.6133 13.04 11.72 12.8C11.8533 12.56 11.9867 12.36 12.12 12.2C12.1733 12.1467 12.24 12.1067 12.32 12.08C12.4 12.0267 12.4533 11.96 12.48 11.88C12.48 11.8533 12.4667 11.7867 12.44 11.68C12.4133 11.5733 12.4533 11.4933 12.56 11.44L12.6 11.36V11.32C12.8667 11.2933 12.9733 11.2267 12.92 11.12C12.8933 11.0133 12.8933 10.88 12.92 10.72L13.04 10.56V10.52C13.2267 10.44 13.3333 10.32 13.36 10.16C13.4133 9.97333 13.4533 9.8 13.48 9.64C13.5333 9.61333 13.6267 9.44 13.76 9.12C13.92 8.8 14.0667 8.46667 14.2 8.12C14.36 7.74667 14.4667 7.52 14.52 7.44C14.6533 7.38667 14.72 7.30667 14.72 7.2C14.72 7.06667 14.7333 6.94667 14.76 6.84C14.8133 6.70667 14.8267 6.56 14.8 6.4C14.8 6.24 14.8133 6.08 14.84 5.92C14.8933 5.76 14.9333 5.58667 14.96 5.4C15.0133 5.21333 15.04 5.02667 15.04 4.84V4.8C15.0133 4.74667 15 4.66667 15 4.56C15 4.45333 15.0267 4.36 15.08 4.28C15.1333 4.2 15.1867 4.10667 15.24 4V3.96C15.2933 3.90667 15.36 3.8 15.44 3.64C15.5467 3.48 15.6533 3.41333 15.76 3.44C15.8667 3.38667 15.9467 3.36 16 3.36C16.1333 3.36 16.2667 3.42667 16.4 3.56H16.44L16.6 3.6C16.68 3.49333 16.7333 3.29333 16.76 3C16.8133 2.68 16.84 2.44 16.84 2.28V2.24C16.92 2.08 16.9733 1.94667 17 1.84C17.0533 1.70667 17.0533 1.54667 17 1.36C17.0533 1.30667 17.1067 1.25333 17.16 1.2C17.2133 1.12 17.28 1.05333 17.36 0.999999C17.44 1.02667 17.48 1.13333 17.48 1.32C17.48 1.42667 17.4667 1.54667 17.44 1.68C17.44 1.78667 17.44 1.86667 17.44 1.92C17.4133 1.97333 17.4 2.06667 17.4 2.2C17.2667 2.25333 17.2 2.33333 17.2 2.44C17.2 2.52 17.2133 2.61333 17.24 2.72C17.2933 2.8 17.32 2.88 17.32 2.96C17.2933 3.33333 17.2667 3.73333 17.24 4.16C17.24 4.58667 17.24 5.02667 17.24 5.48C17.24 6.68 17.28 7.96 17.36 9.32C17.4667 10.68 17.6133 12 17.8 13.28C17.9867 14.56 18.2133 15.7067 18.48 16.72H18.52V16.84C18.52 16.9467 18.5467 17.0533 18.6 17.16C18.6533 17.2667 18.7067 17.3733 18.76 17.48V17.52L19 18.12C19 18.3067 19.0533 18.48 19.16 18.64C19.2933 18.8 19.4133 18.9467 19.52 19.08C19.5467 19.24 19.56 19.36 19.56 19.44C19.5867 19.4933 19.6933 19.5333 19.88 19.56L20.04 19.72H20.08C20.1867 20.0667 20.36 20.1867 20.6 20.08L20.64 20.12C20.6667 20.0933 20.72 20.08 20.8 20.08C20.9333 20.08 21.04 20.1467 21.12 20.28C21.2 20.4133 21.2933 20.5067 21.4 20.56L21.44 20.6C21.4933 20.6 21.5333 20.5333 21.56 20.4C21.6133 20.2667 21.6667 20.1867 21.72 20.16C21.8267 20.1867 22 20.12 22.24 19.96C22.5067 19.7733 22.76 19.5733 23 19.36C23.24 19.12 23.3733 18.96 23.4 18.88L23.44 18.84C23.5733 18.7067 23.64 18.6 23.64 18.52C23.64 18.4133 23.72 18.2933 23.88 18.16L24.32 17.44V17.4C24.56 17.2933 24.68 17.0667 24.68 16.72C24.7333 16.64 24.7867 16.56 24.84 16.48C24.8933 16.3733 24.9333 16.2667 24.96 16.16V16.12C25.0667 16.0133 25.16 15.9333 25.24 15.88C25.3467 15.8267 25.3467 15.7067 25.24 15.52L25.64 14.56V14.52L25.92 14C26.0533 13.68 26.16 13.3467 26.24 13C26.3467 12.6533 26.4533 12.32 26.56 12C26.5867 11.92 26.64 11.7333 26.72 11.44C26.8 11.12 26.88 10.8 26.96 10.48C27.0667 10.16 27.12 9.96 27.12 9.88C27.1467 9.74667 27.1867 9.62667 27.24 9.52C27.32 9.41333 27.3733 9.30667 27.4 9.2C27.4533 8.69333 27.5467 8.2 27.68 7.72C27.8133 7.24 27.9467 6.76 28.08 6.28C28.0533 6.22667 28.0267 6.17333 28 6.12C28 6.06667 28 6.01333 28 5.96L28.04 5.92L28.12 5.4C28.1467 5.24 28.2 5.08 28.28 4.92C28.3867 4.73333 28.3733 4.56 28.24 4.4C28.2133 4.18667 28.1733 3.85333 28.12 3.4C28.0667 2.94667 27.9733 2.66667 27.84 2.56C27.8133 2.45333 27.76 2.30667 27.68 2.12C27.6 1.93333 27.56 1.8 27.56 1.72C27.56 1.64 27.6 1.57333 27.68 1.52C27.7867 1.46667 27.88 1.44 27.96 1.44C28.1733 1.44 28.3333 1.50667 28.44 1.64C28.5733 1.77333 28.7067 1.90667 28.84 2.04L28.88 2.08C28.9067 2.26667 29.0267 2.44 29.24 2.6V2.64C29.3467 2.77333 29.4133 2.92 29.44 3.08H29.48C29.5067 3.13333 29.4933 3.18667 29.44 3.24C29.4133 3.29333 29.4 3.34667 29.4 3.4C29.4533 3.48 29.52 3.53333 29.6 3.56C29.68 3.56 29.7467 3.57333 29.8 3.6C29.9333 3.73333 30 3.92 30 4.16C30 4.4 30.0933 4.56 30.28 4.64C30.4133 4.77333 30.5333 4.90667 30.64 5.04C30.7733 5.14667 30.9333 5.24 31.12 5.32C31.1733 5.29333 31.24 5.29333 31.32 5.32C31.4 5.34667 31.48 5.34667 31.56 5.32V5.28H31.6C31.6533 5.22667 31.6933 5.2 31.72 5.2C31.8533 5.2 31.92 5.29333 31.92 5.48C31.92 5.61333 31.8533 5.72 31.72 5.8L31.6 5.88C31.5733 5.85333 31.5333 5.84 31.48 5.84C31.4 5.84 31.3067 5.86667 31.2 5.92C31.12 5.97333 31.0267 6 30.92 6C30.8133 5.92 30.72 5.85333 30.64 5.8C30.5867 5.74667 30.4933 5.72 30.36 5.72L30.28 5.68L29.4 4.96C29.3733 4.93333 29.3467 4.92 29.32 4.92C29.2667 4.92 29.24 4.97333 29.24 5.08C29.24 5.16 29.24 5.22667 29.24 5.28C29.2667 5.38667 29.28 5.48 29.28 5.56C29.28 5.64 29.28 5.73333 29.28 5.84C29.28 6.08 29.2667 6.32 29.24 6.56C29.2133 6.8 29.1867 7.02667 29.16 7.24C29.0533 7.34667 28.9733 7.45333 28.92 7.56C28.8933 7.64 28.9333 7.74667 29.04 7.88C29.04 7.96 28.9867 8.21333 28.88 8.64C28.8 9.06667 28.7333 9.34667 28.68 9.48C28.4933 10.12 28.3333 10.7067 28.2 11.24C28.0667 11.7733 27.8533 12.3467 27.56 12.96C27.5333 13.04 27.52 13.1333 27.52 13.24C27.52 13.3467 27.4933 13.44 27.44 13.52V13.56C27.28 13.9867 27.12 14.4133 26.96 14.84C26.8 15.2667 26.6133 15.6667 26.4 16.04L25.88 16.96C25.7733 17.1467 25.6667 17.3067 25.56 17.44C25.4533 17.5733 25.3467 17.7333 25.24 17.92C25.1067 18.1867 24.9733 18.4533 24.84 18.72C24.7067 18.96 24.5333 19.1867 24.32 19.4V19.44C24.2667 19.4133 24.2133 19.4 24.16 19.4C24.0267 19.4 23.9333 19.4667 23.88 19.6C23.8267 19.7067 23.7733 19.7867 23.72 19.84C23.6933 19.8667 23.6533 19.88 23.6 19.88C23.4133 19.88 23.32 19.92 23.32 20C23.32 20.1067 23.2933 20.2 23.24 20.28H23.2C22.9333 20.4667 22.64 20.6133 22.32 20.72C22 20.8267 21.68 20.88 21.36 20.88C20.9867 20.88 20.68 20.8267 20.44 20.72H20.36C20.2533 20.4267 20.0667 20.3467 19.8 20.48L19.76 20.44C19.6267 20.3067 19.48 20.1867 19.32 20.08C19.16 20 19.0133 19.8933 18.88 19.76C18.4533 19.3067 18.0533 18.7067 17.68 17.96C17.3067 17.1867 17.0533 16.5067 16.92 15.92V15.84C16.92 15.8133 16.92 15.8 16.92 15.8C16.9467 15.7733 16.96 15.7467 16.96 15.72C16.96 15.64 16.9333 15.56 16.88 15.48C16.8533 15.4 16.8133 15.3333 16.76 15.28C16.76 15.2267 16.72 15.0667 16.64 14.8C16.5867 14.5067 16.5333 14.2133 16.48 13.92C16.4267 13.6 16.4 13.3733 16.4 13.24C16.4 13.0533 16.4133 12.9067 16.44 12.8C16.4933 12.6933 16.4533 12.5867 16.32 12.48V12.36C16.32 12.1467 16.2933 11.9467 16.24 11.76C16.2133 11.5467 16.2 11.3467 16.2 11.16V11.12C16.2 10.8533 16.1867 10.6133 16.16 10.4C16.16 10.16 16.1467 9.92 16.12 9.68C16.0933 9.46667 16.08 9.24 16.08 9C16.1067 8.76 16.12 8.52 16.12 8.28V7.72C16.12 7.37333 16.0933 7.2 16.04 7.2C15.96 7.2 15.8133 7.4 15.6 7.8C15.5467 7.90667 15.4133 8.16 15.2 8.56C15.0133 8.93333 14.8 9.34667 14.56 9.8C14.3467 10.2267 14.1467 10.6 13.96 10.92C13.8 11.24 13.7067 11.4133 13.68 11.44C13.6533 11.6267 13.56 11.8 13.4 11.96V12L12.68 13.24V13.28C12.6267 13.3333 12.5733 13.4 12.52 13.48C12.4933 13.56 12.4533 13.64 12.4 13.72V13.76L11.92 14.52V14.56C11.7867 14.6133 11.68 14.6667 11.6 14.72C11.52 14.7733 11.52 14.8933 11.6 15.08V15.12L11.24 15.68V15.72C11.0533 15.8267 10.92 15.9733 10.84 16.16C10.7867 16.32 10.72 16.4933 10.64 16.68H10.6C10.4667 16.92 10.32 17.1733 10.16 17.44C10.0267 17.7067 9.86667 17.9467 9.68 18.16C9.54667 18.3467 9.30667 18.6667 8.96 19.12C8.61333 19.5467 8.41333 19.8667 8.36 20.08H8.32C8.29333 20.1867 8.22667 20.28 8.12 20.36C8.04 20.4667 7.97333 20.56 7.92 20.64C7.44 21.28 6.86667 21.96 6.2 22.68C5.53333 23.4267 4.85333 24.0133 4.16 24.44C4.4 24.68 4.68 24.88 5 25.04C5.13333 25.04 5.2 25.0667 5.2 25.12C5.2 25.1733 5.22667 25.2267 5.28 25.28H5.36C5.44 25.28 5.54667 25.2667 5.68 25.24C5.84 25.24 5.94667 25.24 6 25.24C6.13333 25.24 6.2 25.2933 6.2 25.4C6.2 25.5333 6.13333 25.6 6 25.6ZM2.12 24.16C2.25333 24.16 2.4 24.12 2.56 24.04C2.74667 23.96 2.96 23.8667 3.2 23.76C3.17333 23.7067 3.16 23.6667 3.16 23.64C3.16 23.6133 3.13333 23.5867 3.08 23.56C3.05333 23.48 3.01333 23.4 2.96 23.32C2.93333 23.24 2.89333 23.16 2.84 23.08V23.04C2.78667 22.9067 2.73333 22.76 2.68 22.6C2.65333 22.44 2.61333 22.2933 2.56 22.16H2.52C2.41333 21.9467 2.33333 21.5467 2.28 20.96C2.25333 20.4 2.24 19.9867 2.24 19.72C2.21333 19.8533 2.14667 20.1067 2.04 20.48C1.96 20.8533 1.88 21.2133 1.8 21.56C1.74667 21.9333 1.72 22.1733 1.72 22.28C1.56 22.3867 1.48 22.48 1.48 22.56C1.48 22.6133 1.49333 22.6667 1.52 22.72C1.57333 22.7733 1.61333 22.84 1.64 22.92C1.64 23.7467 1.8 24.16 2.12 24.16ZM39.6366 22.88L39.2766 22.76C39.2499 22.84 39.1832 22.8667 39.0766 22.84C38.9966 22.84 38.9299 22.8133 38.8766 22.76C38.7432 22.5467 38.5966 22.4533 38.4366 22.48C38.2766 22.5333 38.0632 22.5067 37.7966 22.4H37.7566C37.6766 22.4 37.5832 22.4133 37.4766 22.44C37.3966 22.4933 37.3166 22.5067 37.2366 22.48L36.9566 22.24C36.9566 22.2667 36.9299 22.28 36.8766 22.28C36.7966 22.28 36.7166 22.2667 36.6366 22.24C36.5566 22.2133 36.5299 22.1867 36.5566 22.16L35.8766 21.8L35.7966 21.84L35.3566 21.36C35.3299 21.3867 35.3032 21.4 35.2766 21.4C35.2232 21.4 35.1699 21.36 35.1166 21.28C35.0632 21.2267 35.0232 21.2 34.9966 21.2C34.8366 21.0667 34.6499 20.9333 34.4366 20.8C34.2499 20.6933 34.0632 20.5733 33.8766 20.44C33.8499 20.4133 33.8366 20.36 33.8366 20.28C33.8366 20.2267 33.8099 20.1867 33.7566 20.16C33.6766 20.08 33.5832 20 33.4766 19.92C33.3699 19.84 33.3032 19.7467 33.2766 19.64L33.1166 19.68C32.9566 19.3867 32.7699 19.12 32.5566 18.88C32.3432 18.64 32.2499 18.32 32.2766 17.92H32.1966L31.6766 17.72V17.6C31.6499 17.6 31.6099 17.6133 31.5566 17.64C31.5032 17.64 31.4366 17.6267 31.3566 17.6C31.1699 17.52 30.9966 17.4267 30.8366 17.32C30.6766 17.1867 30.5566 17.0267 30.4766 16.84C30.4499 16.76 30.4099 16.72 30.3566 16.72C30.3299 16.72 30.3032 16.7067 30.2766 16.68C30.2232 16.5467 30.1432 16.4267 30.0366 16.32C29.9299 16.2133 29.8899 16.08 29.9166 15.92L30.0366 14.92C30.2499 14.68 30.4099 14.56 30.5166 14.56C30.6232 14.56 30.6766 14.68 30.6766 14.92L30.4366 15.32L30.4766 15.8C30.5299 15.8533 30.6099 15.88 30.7166 15.88C30.8232 15.88 30.9032 15.8667 30.9566 15.84L30.9166 16.08L31.0766 16.36L31.1166 16.28L31.3566 16.36L31.5566 16.64C31.6099 16.5333 31.6632 16.5333 31.7166 16.64C31.7699 16.72 31.7966 16.76 31.7966 16.76L31.9966 16.6C31.9699 16.4667 31.9432 16.3333 31.9166 16.2C31.8899 16.04 31.8766 15.8933 31.8766 15.76C31.8766 15.5733 31.8899 15.44 31.9166 15.36C31.9966 15.0667 32.0232 14.84 31.9966 14.68C31.9966 14.68 32.0499 14.5867 32.1566 14.4C32.2632 14.1867 32.3699 14.0533 32.4766 14L32.7966 13.8L32.8766 13.92C32.8499 13.9467 32.7966 14.0267 32.7166 14.16C32.6366 14.2933 32.5699 14.3867 32.5166 14.44C32.3032 14.8933 32.2232 15.3467 32.2766 15.8C32.2766 15.8267 32.2766 15.8667 32.2766 15.92C32.3032 15.9467 32.3032 16 32.2766 16.08V16.64C32.3299 16.6667 32.3566 16.7733 32.3566 16.96C32.3566 17.12 32.3832 17.1867 32.4366 17.16C32.5699 17.1333 32.6766 17.1733 32.7566 17.28C32.8632 17.36 32.9432 17.32 32.9966 17.16L33.2766 17.48H33.6766C33.6499 17.5333 33.7166 17.5867 33.8766 17.64C34.0632 17.6667 34.2499 17.68 34.4366 17.68C34.6232 17.68 34.7166 17.68 34.7166 17.68L34.9566 17.88C34.9566 17.8533 34.9966 17.88 35.0766 17.96H35.1166C35.1966 17.96 35.2766 17.9333 35.3566 17.88C35.4632 17.8267 35.5432 17.8 35.5966 17.8C35.7299 17.8267 35.8632 17.88 35.9966 17.96C36.1566 18.04 36.2766 18.04 36.3566 17.96L36.6766 18.08L37.0366 17.88C37.0899 17.9333 37.1966 17.9867 37.3566 18.04C37.4099 18.0667 37.4899 18.08 37.5966 18.08C37.8366 18.08 38.0099 18.0267 38.1166 17.92L38.2766 18.12C38.6499 18.0933 39.0232 18.0933 39.3966 18.12C39.7966 18.12 40.1699 18.12 40.5166 18.12C40.8099 18.12 41.0899 18.12 41.3566 18.12C41.6499 18.0933 41.9299 18.0667 42.1966 18.04C42.2766 18.04 42.3432 18.04 42.3966 18.04C42.4499 18.0133 42.4899 18 42.5166 18C42.7032 18 42.9166 17.9467 43.1566 17.84C43.3966 17.7333 43.5966 17.68 43.7566 17.68C43.8099 17.68 43.9299 17.64 44.1166 17.56C44.3299 17.4533 44.3966 17.52 44.3166 17.76L43.9166 17.96L43.7966 17.92C43.7699 17.9467 43.6499 18.0133 43.4366 18.12C43.2499 18.2 43.1432 18.2133 43.1166 18.16L42.2766 18.28C42.1699 18.3067 42.0099 18.3333 41.7966 18.36C41.5832 18.3867 41.4766 18.3867 41.4766 18.36L41.1166 18.44C41.1166 18.4133 41.0899 18.4 41.0366 18.4C40.9299 18.4 40.7699 18.44 40.5566 18.52C40.3699 18.6 40.2632 18.6267 40.2366 18.6C40.2099 18.5467 40.0766 18.5467 39.8366 18.6C39.6232 18.6267 39.4099 18.64 39.1966 18.64C38.8766 18.64 38.7032 18.5867 38.6766 18.48L38.3566 18.6C38.4099 18.5467 38.3832 18.52 38.2766 18.52C38.1966 18.4933 38.1299 18.4933 38.0766 18.52L38.0366 18.72C37.9832 18.7467 37.9299 18.7467 37.8766 18.72C37.8232 18.6933 37.7699 18.6667 37.7166 18.64C37.5566 18.56 37.3032 18.52 36.9566 18.52C36.6099 18.52 36.2766 18.5067 35.9566 18.48C35.6366 18.4533 35.4366 18.3867 35.3566 18.28L35.0366 18.44C34.9299 18.44 34.7699 18.4267 34.5566 18.4C34.3699 18.3467 34.2232 18.3067 34.1166 18.28C33.9299 18.2267 33.7166 18.1733 33.4766 18.12C33.2632 18.0667 33.0499 18.0533 32.8366 18.08L33.0366 18.4V18.48C33.2232 18.5867 33.3699 18.76 33.4766 19C33.6099 19.2133 33.8099 19.2933 34.0766 19.24L34.1966 19.76L34.5166 19.96C34.5432 19.9333 34.5699 19.92 34.5966 19.92C34.6766 19.92 34.8099 19.9733 34.9966 20.08C35.1832 20.1867 35.3299 20.2667 35.4366 20.32L35.5566 20.24L35.7566 20.6C35.7832 20.5733 35.8099 20.56 35.8366 20.56C35.9166 20.56 36.0099 20.5867 36.1166 20.64C36.2232 20.6933 36.2899 20.7067 36.3166 20.68L36.5966 20.76L36.8766 20.68C36.9832 20.84 37.0499 20.96 37.0766 21.04C37.1032 21.12 37.1432 21.1733 37.1966 21.2C37.3299 21.2533 37.3299 21.2933 37.1966 21.32C37.0899 21.3467 37.0366 21.3867 37.0366 21.44L37.0766 21.52H37.4366C37.4366 21.44 37.5299 21.3733 37.7166 21.32C37.9299 21.2933 38.1432 21.28 38.3566 21.28C38.6766 21.28 38.8632 21.3067 38.9166 21.36C39.0232 21.4133 39.0499 21.4133 38.9966 21.36L39.3566 21.32L39.5966 21.52C39.6499 21.44 39.7032 21.4 39.7566 21.4C39.8366 21.4 39.9032 21.4133 39.9566 21.44C40.0366 21.4933 40.0766 21.52 40.0766 21.52C40.1299 21.5467 40.1832 21.4933 40.2366 21.36C40.3166 21.2533 40.4099 21.2133 40.5166 21.24L40.6766 21.28C40.8632 21.28 41.0499 21.2533 41.2366 21.2C41.4499 21.1467 41.5699 21.2 41.5966 21.36L41.8766 21.16L42.0766 21.2L41.9966 21.52C41.9966 21.6267 42.0099 21.68 42.0366 21.68C42.0899 21.68 42.1566 21.5867 42.2366 21.4C42.3432 21.24 42.3966 21.2267 42.3966 21.36L42.6766 21.04C42.7566 21.0933 42.8632 21.12 42.9966 21.12C43.2099 21.12 43.4099 21.04 43.5966 20.88C43.7832 20.7467 44.0099 20.6533 44.2766 20.6L44.3166 20.68C44.3699 20.6533 44.4232 20.6267 44.4766 20.6C44.5566 20.6 44.5966 20.6267 44.5966 20.68L45.0366 20.64C45.1432 20.56 45.3166 20.4667 45.5566 20.36C45.8232 20.2533 46.0099 20.1733 46.1166 20.12L46.1566 19.96C46.1566 19.96 46.2232 19.96 46.3566 19.96C46.5166 19.9333 46.6099 19.9067 46.6366 19.88V19.84C46.6366 19.7867 46.6366 19.7067 46.6366 19.6C46.6366 19.4667 46.6899 19.4133 46.7966 19.44L46.9966 19.56C47.2366 19.48 47.3966 19.3733 47.4766 19.24C47.5832 19.08 47.7432 18.9333 47.9566 18.8C48.0366 18.7467 48.1032 18.68 48.1566 18.6C48.2366 18.52 48.3299 18.4667 48.4366 18.44C48.4632 18.44 48.5032 18.48 48.5566 18.56C48.6366 18.64 48.7166 18.6267 48.7966 18.52L48.8366 18.12L49.1966 18L49.3966 17.72C49.3966 17.72 49.3966 17.7333 49.3966 17.76C49.4232 17.76 49.4499 17.76 49.4766 17.76C49.5832 17.76 49.7032 17.6533 49.8366 17.44C49.9699 17.2267 49.9966 17.08 49.9166 17L50.3166 16.56C50.2899 16.4 50.3432 16.2 50.4766 15.96C50.6366 15.72 50.7166 15.4267 50.7166 15.08C50.7166 14.8667 50.6499 14.6133 50.5166 14.32C50.3832 14.0267 50.1166 13.7067 49.7166 13.36L49.5166 13.24C49.1966 13.0267 48.9032 12.8667 48.6366 12.76C48.3966 12.6267 48.0766 12.4933 47.6766 12.36C47.6766 12.36 47.6366 12.3333 47.5566 12.28L46.4366 11.96C46.3299 11.88 46.0899 11.8133 45.7166 11.76C45.3432 11.7067 45.0899 11.6667 44.9566 11.64C44.9032 11.6133 44.8366 11.5733 44.7566 11.52C44.7032 11.4667 44.6499 11.48 44.5966 11.56L44.2366 11.36C44.1832 11.3867 44.1166 11.4 44.0366 11.4C43.9832 11.4 43.9299 11.3867 43.8766 11.36C43.8499 11.3333 43.7699 11.32 43.6366 11.32C43.4499 11.2933 43.1432 11.2133 42.7166 11.08C42.3166 10.9467 42.0899 10.9067 42.0366 10.96L40.9966 10.44L40.8766 10.48L40.5166 10.28C40.5966 10.3867 40.5432 10.4133 40.3566 10.36C40.1699 10.28 39.9566 10.1867 39.7166 10.08C39.4766 9.94667 39.2899 9.86667 39.1566 9.84C38.7032 9.65333 38.2899 9.38667 37.9166 9.04C37.5699 8.69333 37.3966 8.26667 37.3966 7.76C37.3966 7.30667 37.4232 6.98667 37.4766 6.8C37.5299 6.61333 37.5966 6.45333 37.6766 6.32C37.7832 6.18667 37.8766 5.98667 37.9566 5.72C38.0099 5.64 38.0766 5.56 38.1566 5.48C38.2632 5.37333 38.3299 5.26667 38.3566 5.16L38.6766 4.96C38.7032 4.82667 38.7699 4.69333 38.8766 4.56C39.0099 4.42667 39.1299 4.33333 39.2366 4.28C39.5832 4.12 39.9699 3.85333 40.3966 3.48C40.8499 3.08 41.2899 2.78667 41.7166 2.6C41.8232 2.54667 41.9166 2.50667 41.9966 2.48C42.0766 2.42667 42.1699 2.38667 42.2766 2.36L42.3166 2.44C42.5566 2.36 42.9566 2.24 43.5166 2.08C44.0766 1.89333 44.6899 1.70667 45.3566 1.52C46.0499 1.33333 46.6899 1.17333 47.2766 1.04C47.8899 0.906665 48.3699 0.839999 48.7166 0.839999C48.9566 0.839999 49.0899 0.879999 49.1166 0.96L49.5966 0.68C49.6232 0.706666 49.6766 0.733332 49.7566 0.759999C49.8366 0.759999 49.8899 0.746665 49.9166 0.719999L50.3166 0.839999C50.4232 0.786665 50.5032 0.759999 50.5566 0.759999C50.7166 0.759999 50.8899 0.813332 51.0766 0.919999C51.2899 0.999999 51.4499 1.02667 51.5566 0.999999C51.6899 0.946666 51.7832 0.933332 51.8366 0.96C51.9166 0.96 51.9966 0.96 52.0766 0.96H52.2366C52.3166 0.96 52.3966 0.973333 52.4766 0.999999C52.5832 0.999999 52.6899 1.05333 52.7966 1.16L52.9966 1.2C53.0766 1.28 53.1166 1.37333 53.1166 1.48C53.1699 1.58667 53.3299 1.65333 53.5966 1.68C53.8632 1.70667 54.0366 1.76 54.1166 1.84C54.3299 2 54.4499 2.26667 54.4766 2.64C54.5299 2.98667 54.5566 3.30667 54.5566 3.6C54.5299 3.89333 54.4099 4.25333 54.1966 4.68C54.0099 5.08 53.7699 5.4 53.4766 5.64C53.3432 5.74667 53.1432 5.86667 52.8766 6C52.6099 6.10667 52.4099 6.2 52.2766 6.28C51.9832 6.46667 51.6632 6.56 51.3166 6.56C50.8099 6.56 50.5566 6.45333 50.5566 6.24C50.5566 6.16 50.6499 6.08 50.8366 6C50.9699 5.94667 51.0899 5.89333 51.1966 5.84C51.3299 5.76 51.4499 5.66667 51.5566 5.56C51.6632 5.50667 51.7299 5.48 51.7566 5.48C51.8099 5.45333 51.8499 5.42667 51.8766 5.4C51.9299 5.37333 51.9699 5.34667 51.9966 5.32C52.0232 5.26667 52.0766 5.21333 52.1566 5.16C52.3166 5.02667 52.5166 4.81333 52.7566 4.52C53.0232 4.2 53.2099 3.96 53.3166 3.8C53.3432 3.66667 53.3966 3.49333 53.4766 3.28C53.5832 3.04 53.6366 2.82667 53.6366 2.64C53.6366 2.48 53.5966 2.36 53.5166 2.28C53.4899 2.28 53.4766 2.26667 53.4766 2.24L53.4366 2.16C53.2232 1.70667 52.7966 1.45333 52.1566 1.4C51.5432 1.32 51.0232 1.28 50.5966 1.28C50.5966 1.28 50.5699 1.26667 50.5166 1.24C50.4632 1.21333 50.4366 1.22667 50.4366 1.28L49.5566 1.36L49.4766 1.28L48.6366 1.44L48.5566 1.4L47.6766 1.64C47.7032 1.58667 47.6899 1.57333 47.6366 1.6C47.5832 1.6 47.5566 1.6 47.5566 1.6L46.6766 1.84L46.6366 1.8L46.2366 2.04C46.2366 2.01333 46.2232 1.98667 46.1966 1.96C46.1699 1.93333 46.1566 1.92 46.1566 1.92C46.1299 1.94667 46.1032 1.98667 46.0766 2.04C46.0499 2.06667 46.0099 2.09333 45.9566 2.12L45.8766 2.08L45.3166 2.28C45.3166 2.30667 45.2632 2.32 45.1566 2.32C44.4366 2.64 43.6499 3.01333 42.7966 3.44C41.9699 3.84 41.3299 4.41333 40.8766 5.16L40.7966 5.08L40.4366 5.4C40.4099 5.42667 40.3699 5.46667 40.3166 5.52C40.2899 5.57333 40.2499 5.66667 40.1966 5.8C40.1166 6.01333 39.9966 6.26667 39.8366 6.56C39.7032 6.85333 39.6366 7.13333 39.6366 7.4C39.6366 7.66667 39.6899 7.92 39.7966 8.16C39.9032 8.37333 39.9832 8.42667 40.0366 8.32L40.3966 8.56L40.5166 9L40.5966 8.96L41.1166 9.36H41.1966L41.8366 9.88L42.3166 10.16H42.6366L43.1166 10.32C43.1699 10.3467 43.2099 10.3867 43.2366 10.44C43.2899 10.4667 43.3566 10.44 43.4366 10.36L43.8366 10.64C43.8632 10.6133 43.9032 10.6 43.9566 10.6C44.0099 10.6 44.0632 10.6267 44.1166 10.68C44.1699 10.7067 44.2099 10.7333 44.2366 10.76L44.3166 10.72L45.7166 11.28C45.7699 11.2533 45.8366 11.24 45.9166 11.24C46.0499 11.24 46.1566 11.2667 46.2366 11.32C46.3432 11.3467 46.4499 11.3733 46.5566 11.4C46.6099 11.4267 46.6766 11.4667 46.7566 11.52C46.8632 11.5733 46.9166 11.6133 46.9166 11.64C46.9699 11.6667 47.0232 11.68 47.0766 11.68C47.1566 11.68 47.2232 11.68 47.2766 11.68L47.6366 11.8L47.9966 12L48.3566 12.04C48.3566 12.04 48.4632 12.0933 48.6766 12.2C48.9166 12.28 49.1566 12.36 49.3966 12.44C49.6632 12.52 49.8099 12.5733 49.8366 12.6L50.0766 12.84L50.1166 12.8L50.3966 12.96C50.6899 13.1467 50.9832 13.5067 51.2766 14.04C51.5966 14.5467 51.7566 15.1067 51.7566 15.72C51.7566 16.12 51.6899 16.52 51.5566 16.92C51.4499 17.2933 51.3166 17.6 51.1566 17.84C50.7566 18.3733 50.3166 18.8533 49.8366 19.28C49.3832 19.7067 48.9699 20.0667 48.5966 20.36C48.4632 20.44 48.3699 20.5067 48.3166 20.56C48.2632 20.6133 48.1832 20.64 48.0766 20.64C47.9966 20.6667 47.9299 20.7067 47.8766 20.76C47.5032 20.9733 47.0899 21.16 46.6366 21.32C46.1832 21.5067 45.7832 21.68 45.4366 21.84C45.2766 21.8933 45.1432 21.92 45.0366 21.92C44.9299 21.9467 44.8232 21.9733 44.7166 22C44.6899 22 44.6366 22.0133 44.5566 22.04C44.5032 22.0933 44.4766 22.1067 44.4766 22.08L44.1966 22.28C44.1699 22.2533 44.1299 22.24 44.0766 22.24C43.9699 22.24 43.8499 22.2933 43.7166 22.4C43.6099 22.5067 43.5032 22.5467 43.3966 22.52H43.3566C43.2766 22.52 43.1699 22.5333 43.0366 22.56C42.9299 22.6133 42.8499 22.6133 42.7966 22.56L42.2766 22.76L42.1966 22.56C42.1699 22.56 42.1299 22.5867 42.0766 22.64C42.0499 22.72 42.0099 22.76 41.9566 22.76C41.9566 22.76 41.9032 22.7333 41.7966 22.68C41.6899 22.6267 41.6099 22.6533 41.5566 22.76L41.1166 22.88C41.0899 22.7733 41.0099 22.72 40.8766 22.72C40.7699 22.72 40.6766 22.76 40.5966 22.84L40.2766 22.68V22.72L39.9566 22.68L39.6366 22.88Z" fill="black"/>
</svg>
